# xmcd
#
# Track frame offsets:
#	150
#	21674
#	42900
#	64688
#	81076
#	98176
#	122539
#	141595
#	175827
#	193406
#	210374
#	230026
#	249306
#	272144
#	288569
#
# Disc length: 4093 seconds
#
# Revision: 1
# Processed by: cddbd v1.5.1PL0 Copyright (c) Steve Scherf et al.
# Submitted via: audiograbber 1.83.01
#
DISCID=e40ffb0f
DTITLE=Dj Skydreamer. - Beautiful World.
DYEAR=1900
DGENRE=
TTITLE0=I'll Live.
TTITLE1=Heaven Will Come.
TTITLE2=Heart Your Calling.
TTITLE3=Space Invaders.
TTITLE4=In The Silence.
TTITLE5=Keep The Secret.
TTITLE6=Fireball.
TTITLE7=I Feeling. (Base Club Mix)
TTITLE8=Oceans Of Fantasy.
TTITLE9=We Kill The World.
TTITLE10=Mirage.
TTITLE11=Don't Cry My Heart. (Euro Pop Mix)
TTITLE12=The Splitting. (Space Mix)
TTITLE13=New Year. (Major Trance Mix)
TTITLE14=Russo Turisto.
EXTD=
EXTT0=
EXTT1=
EXTT2=
EXTT3=
EXTT4=
EXTT5=
EXTT6=
EXTT7=
EXTT8=
EXTT9=
EXTT10=
EXTT11=
EXTT12=
EXTT13=
EXTT14=
PLAYORDER=
